<svg width="18" height="18" viewBox="0 0 18 18" fill="none" xmlns="http://www.w3.org/2000/svg">
<g clip-path="url(#clip0_16_56)">
<path d="M15.3 0.899994H2.69999C1.70999 0.899994 0.899994 1.70999 0.899994 2.69999V15.3C0.899994 16.2909 1.70999 17.1 2.69999 17.1H8.99999V10.8H7.19999V8.57249H8.99999V6.72749C8.99999 4.77989 10.0908 3.41189 12.3894 3.41189L14.0121 3.41369V5.75819H12.9348C12.0402 5.75819 11.7 6.42959 11.7 7.05239V8.57339H14.0112L13.5 10.8H11.7V17.1H15.3C16.29 17.1 17.1 16.2909 17.1 15.3V2.69999C17.1 1.70999 16.29 0.899994 15.3 0.899994Z" fill="#55ACEE"/>
</g>
<defs>
<clipPath id="clip0_16_56">
<rect width="18" height="18" fill="white"/>
</clipPath>
</defs>
</svg>
