<svg xmlns="http://www.w3.org/2000/svg" width="217" height="70" viewBox="0 0 217 70" fill="none">
  <path d="M187.121 4H180.229V18.7447C182.526 13.8298 185.152 12.1915 187.121 10.7021V4Z" fill="black"/>
  <path d="M187.121 67V13.8298C181.345 19.5489 180.12 23.6596 180.229 25V67H187.121Z" fill="black"/>
  <path d="M187.121 4H180.229V18.7447C182.526 13.8298 185.152 12.1915 187.121 10.7021V4Z" stroke="black"/>
  <path d="M187.121 67V13.8298C181.345 19.5489 180.12 23.6596 180.229 25V67H187.121Z" stroke="black"/>
  <path d="M176.291 4H156.601V21.4255C157.913 18.2085 161.851 13.8298 163.82 13.383H176.291V4Z" fill="black"/>
  <path d="M163.492 16.5106C160.604 17.583 157.695 24.1064 156.601 27.234V40.1915H172.681V30.8085H163.492V16.5106Z" fill="black"/>
  <path d="M163.492 42.8723H156.601V67H163.492V42.8723Z" fill="black"/>
  <path d="M176.291 4H156.601V21.4255C157.913 18.2085 161.851 13.8298 163.82 13.383H176.291V4Z" stroke="black"/>
  <path d="M163.492 16.5106C160.604 17.583 157.695 24.1064 156.601 27.234V40.1915H172.681V30.8085H163.492V16.5106Z" stroke="black"/>
  <path d="M163.492 42.8723H156.601V67H163.492V42.8723Z" stroke="black"/>
  <path d="M98.1859 33.4893C94.5759 39.7446 92.8257 44.6595 92.2787 47.3404V66.9999L98.1859 67V33.4893Z" fill="black"/>
  <path d="M98.8422 27.6808L106.062 66.9999H111.313L114.923 43.3191C112.035 47.6085 109.672 49.1276 108.687 49.5744L102.124 4.08313H92.2787V40.6382C93.9195 36.617 96.8732 29.9148 98.8422 27.6808Z" fill="black"/>
  <path d="M114.923 4.08313L110.328 45.5531C116.367 40.5489 117.329 31.4042 117.548 27.234V66.9999H124.44V4.08313H114.923Z" fill="black"/>
  <path d="M98.1859 33.4893C94.5759 39.7446 92.8257 44.6595 92.2787 47.3404V66.9999L98.1859 67V33.4893Z" stroke="black"/>
  <path d="M98.8422 27.6808L106.062 66.9999H111.313L114.923 43.3191C112.035 47.6085 109.672 49.1276 108.687 49.5744L102.124 4.08313H92.2787V40.6382C93.9195 36.617 96.8732 29.9148 98.8422 27.6808Z" stroke="black"/>
  <path d="M114.923 4.08313L110.328 45.5531C116.367 40.5489 117.329 31.4042 117.548 27.234V66.9999H124.44V4.08313H114.923Z" stroke="black"/>
  <path d="M4 53.5958L4 16.9575" stroke="black" stroke-width="7" stroke-linecap="round"/>
  <path d="M68.9783 57.1702V13.3829" stroke="black" stroke-width="7" stroke-linecap="round"/>
  <path d="M55.8514 66.1064L55.8514 4.44681" stroke="black" stroke-width="7" stroke-linecap="round"/>
  <path d="M17.127 63.4255L17.127 8.02128" stroke="black" stroke-width="7" stroke-linecap="round"/>
  <path d="M42.7244 49.1277L42.7244 22.3192" stroke="black" stroke-width="7" stroke-linecap="round"/>
  <path d="M30.2539 55.383L30.2539 15.1702" stroke="black" stroke-width="7" stroke-linecap="round"/>
  <path d="M194.997 33.0426L191.059 67H198.279L199.92 52.2553H207.468C211.668 55.1149 214.031 58.5107 215.015 59.8511L208.124 4.44684H198.935L196.31 24.5532C199.5 20.5 202.217 18.7447 203.529 18.2979L206.483 42.8724H200.904L202 22C197.537 25.217 195.763 30.6596 194.997 33.0426Z" fill="black"/>
  <path d="M216 67C215.475 63.4256 210.093 58.0639 207.468 55.8298L209.108 67H216Z" fill="black"/>
  <path d="M194.997 33.0426L191.059 67H198.279L199.92 52.2553H207.468C211.668 55.1149 214.031 58.5107 215.015 59.8511L208.124 4.44684H198.935L196.31 24.5532C199.5 20.5 202.217 18.7447 203.529 18.2979L206.483 42.8724H200.904L202 22C197.537 25.217 195.763 30.6596 194.997 33.0426Z" stroke="black"/>
  <path d="M216 67C215.475 63.4256 210.093 58.0639 207.468 55.8298L209.108 67H216Z" stroke="black"/>
  <path d="M132.938 33.5957L129 67.5532H136.22L137.861 52.8085H145.409C149.609 55.6681 151.972 59.0638 152.957 60.4043L146.065 5H136.876L134.251 25.1064C137.441 21.0532 140.158 19.2979 141.471 18.8511L144.424 43.4255H138.845L139.941 22.5532C135.478 25.7702 133.704 31.2128 132.938 33.5957Z" fill="black"/>
  <path d="M153.941 67.5532C153.416 63.9787 148.034 58.617 145.409 56.383L147.05 67.5532H153.941Z" fill="black"/>
  <path d="M132.938 33.5957L129 67.5532H136.22L137.861 52.8085H145.409C149.609 55.6681 151.972 59.0638 152.957 60.4043L146.065 5H136.876L134.251 25.1064C137.441 21.0532 140.158 19.2979 141.471 18.8511L144.424 43.4255H138.845L139.941 22.5532C135.478 25.7702 133.704 31.2128 132.938 33.5957Z" stroke="black"/>
  <path d="M153.941 67.5532C153.416 63.9787 148.034 58.617 145.409 56.383L147.05 67.5532H153.941Z" stroke="black"/>
</svg>
