<svg width="216" height="216" viewBox="0 0 216 216" fill="none" xmlns="http://www.w3.org/2000/svg">
<path d="M108 216C167.647 216 216 167.647 216 108C216 48.3532 167.647 0 108 0C48.3532 0 0 48.3532 0 108C0 167.647 48.3532 216 108 216Z" fill="url(#paint0_linear_0_3510)"/>
<path d="M37.8728 112.601C50.5584 105.668 64.7189 99.8822 77.9498 94.0667C100.712 84.5414 123.565 75.1812 146.648 66.4669C151.139 64.9822 159.209 63.5304 160 70.1333C159.567 79.4801 157.784 88.7721 156.562 98.0641C153.459 118.498 149.872 138.862 146.375 159.229C145.17 166.013 136.604 169.525 131.123 165.183C117.951 156.357 104.677 147.615 91.6734 138.583C87.4137 134.289 91.3638 128.122 95.1681 125.056C106.017 114.448 117.522 105.436 127.804 94.2807C130.578 87.6361 122.383 93.2359 119.68 94.9519C104.828 105.106 90.3389 115.88 74.68 124.804C66.6814 129.173 57.359 125.44 49.364 123.002C42.1957 120.058 31.6912 117.091 37.8721 112.601L37.8728 112.601Z" fill="white"/>
<defs>
<linearGradient id="paint0_linear_0_3510" x1="77.7292" y1="-99.9923" x2="-69.8856" y2="138.673" gradientUnits="userSpaceOnUse">
<stop stop-color="#34B0DF"/>
<stop offset="1" stop-color="#1E88D3"/>
</linearGradient>
</defs>
</svg>
